<?xml version="1.0" encoding="UTF-8"?><svg id="Layer_1" xmlns="http://www.w3.org/2000/svg" viewBox="0 0 303.42 184.24"><path d="m300.37,105.34c-9.92,20.67-29.43,41.55-53.72,41.93-2.28.27-4.93-2.25-1.92-3.4,1.3-.28,3.49.3,3.4-1.68.65-8.17-3.33-16.2-9.88-21.05-2.14-1.52-4.95-3.31-7.66-2.49-.87.1-.88,1.22-.16,1.51,4.53,2.56,5.32,8.34,5.11,13.09-.48,13.64-17.77,15.01-28.16,13.14-12.24-2.57-3.48-16.23,1.31-8.31.7.73-.05,3.72,1.58,2.71,3.14-2.14,5.87-4.85,8.14-7.92,1.65-2.54,2.93-5.22,3.88-8.09.94-1.86,3.41-18.54-1.2-13.68-2.86,8.6-9.92,14.42-19.84,14.54-4.11.05-6.24-1.03-9.09-2.1-10.48-3.49-15.49-16.91-11.85-26.93,2.18-3.38,6.76-.19,5.54,2.98-.13,1.58-2.94,4.48-.27,5,13.2,4.44,34.24,1.07,43.72-9.57.54-.64.6-2.32-.62-1.87-3.71,1.1-7.56,2.21-11.45,2.3-5.71.26-11.81-.14-16.01-4.54-5.63-5.25-9.89-15.66-4.6-22.37,4.38-5.3,11.81-5.46,18.14-5.3,9.45-.35,17.53,7.02,15.41,16.81-.16,1.3.22,1.67,1.55,1.38,5.76-1.53,11.03-3.14,16.6-5.04,1.76-1.03-.7-2.38-1.81-2.41-2.31-.37-3.69-1.97-5.21-3.69.83-.41,1.43-.3,2.01-.29,2.93.47,9.86-4.58,3.75-5.2-7.7-.96-8.33-6.8-5.22-12.79,1.94-5.53,19.45-4.2,17.52,2.5-1.11,3.18-4.76,2.07-7.29,2.92-.51.1-1.13.17-1.15.9-.02.72.53,1.07,1.07,1.27,1.86.69,3.63,1.6,5.58,2.06,11.5,2.18,15.84,6.03,1.6,10.3-4.11,2.15,7.25,3.54,8.64,3.5,8.09-.02,16.16-1.69,23.6-4.83,3.02-.67-1.74-7.46-1.84-9.43-3.46-9.41-7.13-18.75-10.66-28.13-1.05-2.5-3.41,1.25-4.27-1.78-3.4-6.59-8.61-12.01-13.24-17.74-2.04-2.78-2.69,1.92-5.31.13-10.38-5.62-21.69-9.22-32.73-13.32-3.88-1.63.04,2.85-3.45,2.34-9.06-.3-18.03,0-27.06.68-.78.15-2.29.29-2.24,1.38.25,1.06,1.75.9,2.41,1.68,2.69,1.97-1.49,2.72-2.94,3.29-5.51,1.81-10.83,4.13-16.01,6.71-3.05,1.56-14.11,7.67-13.47,11.37.34.52.84.68,1.4.56,3.34-.51,7.22-.56,9.45,2.44,2.55,2.83,2.98,9.81-1.65,11.1-4.62,1.43-7.97-.73-9.18-5.63-.52-1.32.16-3.33-1.38-4.03-1.88-.84-3.8-1.4-5.75-1.52-.59-.05-.71-.07-1.77-.1-.86.05-1.2.05-1.79.1-1.95.12-3.87.68-5.75,1.52-1.54.7-.86,2.71-1.38,4.03-1.21,4.9-4.56,7.06-9.18,5.63-4.63-1.29-4.2-8.27-1.65-11.1,2.23-3,6.11-2.95,9.45-2.44.56.12,1.06-.04,1.4-.56.64-3.7-10.42-9.81-13.47-11.37-5.18-2.58-10.5-4.9-16.01-6.71-1.45-.57-5.63-1.32-2.94-3.29.66-.78,2.16-.62,2.41-1.68.05-1.09-1.46-1.23-2.24-1.38-9.03-.68-18-.98-27.06-.68-3.49.51.43-3.97-3.45-2.34-11.04,4.1-22.35,7.7-32.73,13.32-2.62,1.79-3.27-2.91-5.31-.13-4.63,5.73-9.84,11.15-13.24,17.74-.86,3.03-3.22-.72-4.27,1.78-3.53,9.38-7.2,18.72-10.66,28.13-.1,1.97-4.86,8.76-1.84,9.43,7.44,3.14,15.51,4.81,23.6,4.83,1.39.04,12.75-1.35,8.64-3.5-14.24-4.27-9.9-8.12,1.6-10.3,1.95-.46,3.72-1.37,5.58-2.06.54-.2,1.09-.55,1.07-1.27-.02-.73-.64-.8-1.15-.9-2.53-.85-6.18.26-7.29-2.92-1.93-6.7,15.58-8.03,17.52-2.5,3.11,5.99,2.48,11.83-5.22,12.79-6.11.62.82,5.67,3.75,5.2.58-.01,1.18-.12,2.01.29-1.52,1.72-2.9,3.32-5.21,3.69-1.11.03-3.57,1.38-1.81,2.41,5.57,1.9,10.84,3.51,16.6,5.04,1.33.29,1.71-.08,1.55-1.38-2.12-9.79,5.96-17.16,15.41-16.81,6.33-.16,13.76,0,18.14,5.3,5.29,6.71,1.03,17.12-4.6,22.37-4.2,4.4-10.3,4.8-16.01,4.54-3.89-.09-7.74-1.2-11.45-2.3-1.22-.45-1.16,1.23-.62,1.87,9.48,10.64,30.52,14.01,43.72,9.57,2.67-.52-.14-3.42-.27-5-1.22-3.17,3.36-6.36,5.54-2.98,3.64,10.02-1.37,23.44-11.85,26.93-2.85,1.07-4.98,2.15-9.09,2.1-9.92-.12-16.98-5.94-19.84-14.54-4.61-4.86-2.14,11.82-1.2,13.68.95,2.87,2.23,5.55,3.88,8.09,2.27,3.07,5,5.78,8.14,7.92,1.63,1.01.88-1.98,1.58-2.71,4.79-7.92,13.55,5.74,1.31,8.31-10.39,1.87-27.68.5-28.16-13.14-.21-4.75.58-10.53,5.11-13.09.72-.29.71-1.41-.16-1.51-2.71-.82-5.52.97-7.66,2.49-6.55,4.85-10.53,12.88-9.88,21.05-.09,1.98,2.1,1.4,3.4,1.68,3.01,1.15.36,3.67-1.92,3.4-24.29-.38-43.8-21.26-53.72-41.93-6.94-10.1-.04,23.34,1.27,25.55,2.77,9.2,7.16,17.89,13.22,25.37,14.06,15.8,4.65,4.18,13.8,4.65,3.36.82,4.02,5.13.94,6.87-3.25,2.11,8.8,6.67,10.68,8.03.92.81,2.49-.12,1.96-1.29-1-3.27,3.36-6.32,6.05-4.51,6.84,4.93-3.69,8.06.61,9.26,2.11.28,14.27,5.23,13.78,1.75-.59-1.43-.97-2.84.07-4.05,1.31-1.88,3.86-3.28,5.87-1.54,2.59,2.08,2.58,4.52.41,6.22-3.77,3.84,14.48,2.24,16.79,2.36,1.77.12,1.54-.88.83-2.03-1.49-3.04,1.61-7.01,4.87-6.62,9.89,3.08-3.96,11.25,12.75,7.39,24.03-5.13,4.86-2.63,10.38-12.12,1.49-2.19,3.8-2.47,5.51-1.85,2.36.85,3.82,3.03,3.51,5.35-.45,3.76,4.18.08,5.77-.57,6.33-3.42,11.34-8.43,16.24-13.55,1.62-1.47-.37-2.97-1.46-4.05-3.75-3.8-2.76-12.38,3.03-13.12.33-.04.68-.06,1.04-.05.25.01.33.02.74,0,.46,0,.49,0,.74,0,.36,0,.71.01,1.04.05,5.79.74,6.78,9.32,3.03,13.12-1.09,1.08-3.08,2.58-1.46,4.05,4.9,5.12,9.91,10.13,16.24,13.55,1.59.65,6.22,4.33,5.77.57-.31-2.32,1.15-4.5,3.51-5.35,1.71-.62,4.02-.34,5.51,1.85,5.52,9.49-13.65,6.99,10.38,12.12,16.71,3.86,2.86-4.31,12.75-7.39,3.26-.39,6.36,3.58,4.87,6.62-.71,1.15-.94,2.15.83,2.03,2.31-.12,20.56,1.48,16.79-2.36-2.17-1.7-2.18-4.14.41-6.22,2.01-1.74,4.56-.34,5.87,1.54,1.04,1.21.66,2.62.07,4.05-.49,3.48,11.67-1.47,13.78-1.75,4.3-1.2-6.23-4.33.61-9.26,2.69-1.81,7.05,1.24,6.05,4.51-.53,1.17,1.04,2.1,1.96,1.29,1.88-1.36,13.93-5.92,10.68-8.03-3.08-1.74-2.42-6.05.94-6.87,9.15-.47-.26,11.15,13.8-4.65,6.06-7.48,10.45-16.17,13.22-25.37,1.31-2.21,8.21-35.65,1.27-25.55Zm-31.95-66.57c-2.63,1.25-8.17-4.04-8.02-6.76-.01-5.86,9.49,4.68,8.02,6.76Zm-233.42,0c-1.47-2.08,8.03-12.62,8.02-6.76.15,2.72-5.39,8.01-8.02,6.76Z"/></svg>